<svg id="logosandtypes_com" data-name="logosandtypes com" xmlns="http://www.w3.org/2000/svg" viewBox="0 0 150 150"><defs><style>.cls-1{fill:none;}.cls-2{fill:#4285f4;}.cls-3{fill:#34a853;}.cls-4{fill:#fbbc05;}.cls-5{fill:#eb4335;}</style></defs><path class="cls-1" d="M0,0H150V150H0Z" transform="translate(0 0)"/><path class="cls-2" d="M135.35,75.47a52.68,52.68,0,0,0-1.3-12.59H76.23V85.73h33.94c-.68,5.68-4.38,14.23-12.59,20l-.12.76,18.28,14.17,1.27.12c11.63-10.74,18.34-26.55,18.34-45.29" transform="translate(0 0)"/><path class="cls-3" d="M76.23,135.68c16.63,0,30.59-5.48,40.78-14.92L97.58,105.71c-5.2,3.63-12.18,6.16-21.35,6.16a37.07,37.07,0,0,1-35-25.59l-.72.06-19,14.71-.25.69a61.54,61.54,0,0,0,55,33.94" transform="translate(0 0)"/><path class="cls-4" d="M41.2,86.28A37.92,37.92,0,0,1,39.15,74.1a39.89,39.89,0,0,1,2-12.18l0-.82L21.85,46.16l-.63.3a61.43,61.43,0,0,0,0,55.28l20-15.46" transform="translate(0 0)"/><path class="cls-5" d="M76.23,36.33A34.11,34.11,0,0,1,100,45.5l17.38-17a59.16,59.16,0,0,0-41.19-16,61.54,61.54,0,0,0-55,33.94L41.13,61.92a37.23,37.23,0,0,1,35.1-25.59" transform="translate(0 0)"/></svg>